# xmcd
#
# Track frame offsets:
#	150
#	16198
#	24675
#	37728
#	47542
#	56901
#	68875
#	96218
#	120698
#	139500
#	162533
#	171706
#	229309
#
# Disc length: 3184 seconds
#
# Revision: 0
# Processed by: cddbd v1.5.2PL0 Copyright (c) Steve Scherf et al.
# Submitted via: dBpowerAMP V4.0
#
DISCID=b20c6e0d
DTITLE=Bill Engvall - 15 Degrees Off Cool
DYEAR=2007
DGENRE=Comedy
TTITLE0=Argue Naked
TTITLE1=Slim Jims
TTITLE2=Free Range Chicken
TTITLE3=Ionic  Breeze
TTITLE4=Getting Older
TTITLE5=Part of Your Package
TTITLE6=Wives and Nascar
TTITLE7=Bad Weiner Day
TTITLE8=Hurting Gas
TTITLE9=15 Degrees Off Cool
TTITLE10=Fantasy Camp
TTITLE11=Thunderbirds
TTITLE12=DATA
EXTD=
EXTT0=
EXTT1=
EXTT2=
EXTT3=
EXTT4=
EXTT5=
EXTT6=
EXTT7=
EXTT8=
EXTT9=
EXTT10=
EXTT11=
EXTT12=
PLAYORDER=
